<?xml version="1.0" encoding="UTF-8" standalone="no"?>
<!DOCTYPE svg PUBLIC "-//W3C//DTD SVG 1.1//EN"
 "http://www.w3.org/Graphics/SVG/1.1/DTD/svg11.dtd">
<!-- Generated by graphviz version 2.26.3 (20100126.1600)
 -->
<!-- Title: G Pages: 1 -->
<svg width="336pt" height="346pt"
 viewBox="0.00 0.00 336.00 346.00" xmlns="http://www.w3.org/2000/svg" xmlns:xlink="http://www.w3.org/1999/xlink">
<g id="graph1" class="graph" transform="scale(1 1) rotate(0) translate(4 342)">
<title>G</title>
<polygon fill="white" stroke="white" points="-4,5 -4,-342 333,-342 333,5 -4,5"/>
<g id="graph2" class="cluster"><title>cluster_default</title>
<polyline fill="none" stroke="none" points="20,-8 308,-8 "/>
<path fill="none" stroke="none" d="M308,-8C314,-8 320,-14 320,-20"/>
<polyline fill="none" stroke="none" points="320,-20 320,-318 "/>
<path fill="none" stroke="none" d="M320,-318C320,-324 314,-330 308,-330"/>
<polyline fill="none" stroke="none" points="308,-330 20,-330 "/>
<path fill="none" stroke="none" d="M20,-330C14,-330 8,-324 8,-318"/>
<polyline fill="none" stroke="none" points="8,-318 8,-20 "/>
<path fill="none" stroke="none" d="M8,-20C8,-14 14,-8 20,-8"/>
</g>
<!-- \\db -->
<g id="node2" class="node"><title>\\db</title>
<a xlink:href="db_classes_Db.class.html" xlink:title="db" target="_parent">
<polygon fill="none" stroke="black" points="270,-322 216,-322 216,-286 270,-286 270,-322"/>
<text text-anchor="middle" x="243" y="-301.1" font-family="Courier,monospace" font-size="11.00">db</text>
</a>
</g>
<!-- \\DbAdapter -->
<g id="node3" class="node"><title>\\DbAdapter</title>
<a xlink:href="db_classes_Db.class.html" xlink:title="«abstract»&lt;br/&gt;DbAdapter" target="_parent">
<polygon fill="none" stroke="black" points="101,-160 17,-160 17,-124 101,-124 101,-160"/>
<text text-anchor="start" x="25" y="-147.433" font-family="Courier,monospace" font-size="11.00">«abstract»</text>
<text text-anchor="start" x="28.5" y="-134.233" font-family="Courier,monospace" font-size="11.00">DbAdapter</text>
</a>
</g>
<!-- \\FrontController -->
<g id="node4" class="node"><title>\\FrontController</title>
<a xlink:href="db_classes_FrontController.class.html" xlink:title="FrontController" target="_parent">
<polygon fill="none" stroke="black" points="302,-268 184,-268 184,-232 302,-232 302,-268"/>
<text text-anchor="middle" x="243" y="-247.1" font-family="Courier,monospace" font-size="11.00">FrontController</text>
</a>
</g>
<!-- \\Controller -->
<g id="node9" class="node"><title>\\Controller</title>
<a xlink:href="db_classes_Controller.class.html" xlink:title="Controller" target="_parent">
<polygon fill="none" stroke="black" points="101,-268 17,-268 17,-232 101,-232 101,-268"/>
<text text-anchor="middle" x="59" y="-247.1" font-family="Courier,monospace" font-size="11.00">Controller</text>
</a>
</g>
<!-- \\FrontController&#45;&gt;\\Controller -->
<g id="edge3" class="edge"><title>\\FrontController&#45;&gt;\\Controller</title>
<path fill="none" stroke="black" d="M183.768,-250C160.446,-250 133.891,-250 111.292,-250"/>
<polygon fill="none" stroke="black" points="111.213,-246.5 101.213,-250 111.213,-253.5 111.213,-246.5"/>
</g>
<!-- \\DbAdapter_sqlite -->
<g id="node5" class="node"><title>\\DbAdapter_sqlite</title>
<a xlink:href="db_classes_DbAdapters_sqlite.html" xlink:title="DbAdapter_sqlite" target="_parent">
<polygon fill="none" stroke="black" points="305,-214 181,-214 181,-178 305,-178 305,-214"/>
<text text-anchor="middle" x="243" y="-193.1" font-family="Courier,monospace" font-size="11.00">DbAdapter_sqlite</text>
</a>
</g>
<!-- \\DbAdapter_sqlite&#45;&gt;\\DbAdapter -->
<g id="edge5" class="edge"><title>\\DbAdapter_sqlite&#45;&gt;\\DbAdapter</title>
<path fill="none" stroke="black" d="M181.475,-177.944C158.735,-171.27 133.195,-163.774 111.345,-157.362"/>
<polygon fill="none" stroke="black" points="112.169,-153.957 101.588,-154.499 110.198,-160.673 112.169,-153.957"/>
</g>
<!-- \\DbAdapter_postgres -->
<g id="node6" class="node"><title>\\DbAdapter_postgres</title>
<a xlink:href="db_classes_DbAdapters_postgres.html" xlink:title="DbAdapter_postgres" target="_parent">
<polygon fill="none" stroke="black" points="312,-160 174,-160 174,-124 312,-124 312,-160"/>
<text text-anchor="middle" x="243" y="-139.1" font-family="Courier,monospace" font-size="11.00">DbAdapter_postgres</text>
</a>
</g>
<!-- \\DbAdapter_postgres&#45;&gt;\\DbAdapter -->
<g id="edge7" class="edge"><title>\\DbAdapter_postgres&#45;&gt;\\DbAdapter</title>
<path fill="none" stroke="black" d="M173.962,-142C153.389,-142 131.18,-142 111.819,-142"/>
<polygon fill="none" stroke="black" points="111.681,-138.5 101.681,-142 111.681,-145.5 111.681,-138.5"/>
</g>
<!-- \\DbAdapter_mysql -->
<g id="node7" class="node"><title>\\DbAdapter_mysql</title>
<a xlink:href="db_classes_DbAdapters_mysql.html" xlink:title="DbAdapter_mysql" target="_parent">
<polygon fill="none" stroke="black" points="302,-106 184,-106 184,-70 302,-70 302,-106"/>
<text text-anchor="middle" x="243" y="-85.1" font-family="Courier,monospace" font-size="11.00">DbAdapter_mysql</text>
</a>
</g>
<!-- \\DbAdapter_mysql&#45;&gt;\\DbAdapter -->
<g id="edge9" class="edge"><title>\\DbAdapter_mysql&#45;&gt;\\DbAdapter</title>
<path fill="none" stroke="black" d="M183.768,-105.383C160.432,-112.232 133.861,-120.03 111.253,-126.665"/>
<polygon fill="none" stroke="black" points="110.11,-123.353 101.5,-129.527 112.081,-130.069 110.11,-123.353"/>
</g>
<!-- \\Layout -->
<g id="node8" class="node"><title>\\Layout</title>
<a xlink:href="db_classes_Layout.class.html" xlink:title="Layout" target="_parent">
<polygon fill="none" stroke="black" points="271,-52 215,-52 215,-16 271,-16 271,-52"/>
<text text-anchor="middle" x="243" y="-31.1" font-family="Courier,monospace" font-size="11.00">Layout</text>
</a>
</g>
</g>
</svg>
